# xmcd
#
# Track frame offsets:
#	150
#	17340
#	34603
#	51498
#	70540
#	88724
#	108299
#	123942
#	137484
#	155331
#
# Disc length: 2424 seconds
#
# Revision: 1
# Processed by: cddbd v1.5PL3 Copyright (c) Steve Scherf et al.
# Submitted via: EasyCDDAExtractor 7.0.5.1
#
DISCID=7309760a
DTITLE=R.L. Burnside - Too Bad Jim
DYEAR=1994
DGENRE=Blues
TTITLE0=Shake Em on DOwn
TTITLE1=When My First Wife Left Me
TTITLE2=Short Haired Woman
TTITLE3=Old Black Mattie
TTITLE4=FIreman Ring The Bell
TTITLE5=Peaches
TTITLE6=Miss Glory B
TTITLE7=44 Pistol
TTITLE8=Death Bell Blues
TTITLE9=Goin' DOwn South
EXTD=
EXTT0=
EXTT1=
EXTT2=
EXTT3=
EXTT4=
EXTT5=
EXTT6=
EXTT7=
EXTT8=
EXTT9=
PLAYORDER=
